<svg xmlns="http://www.w3.org/2000/svg" width="1600" height="980" viewBox="0 0 1600 980">
  <defs>
    <style>
      .title { font: 700 28px Arial, sans-serif; fill: #0f172a; }
      .subtitle { font: 600 16px Arial, sans-serif; fill: #1f2937; }
      .label { font: 500 14px Arial, sans-serif; fill: #111827; }
      .small { font: 500 12px Arial, sans-serif; fill: #374151; }
      .box { fill: #ffffff; stroke: #334155; stroke-width: 2; rx: 12; ry: 12; }
      .group { fill: #f8fafc; stroke: #64748b; stroke-width: 2; rx: 14; ry: 14; }
      .layer { font: 700 15px Arial, sans-serif; fill: #0f172a; }
      .arrow { stroke: #0f172a; stroke-width: 2.2; fill: none; marker-end: url(#arrowhead); }
      .arrow2 { stroke: #1d4ed8; stroke-width: 2.2; fill: none; marker-end: url(#arrowheadBlue); }
      .dashed { fill: none; stroke: #64748b; stroke-width: 2.4; stroke-dasharray: 8 6; rx: 18; ry: 18; }
    </style>
    <marker id="arrowhead" markerWidth="10" markerHeight="7" refX="9" refY="3.5" orient="auto">
      <polygon points="0 0, 10 3.5, 0 7" fill="#0f172a" />
    </marker>
    <marker id="arrowheadBlue" markerWidth="10" markerHeight="7" refX="9" refY="3.5" orient="auto">
      <polygon points="0 0, 10 3.5, 0 7" fill="#1d4ed8" />
    </marker>
  </defs>

  <rect x="0" y="0" width="1600" height="980" fill="#f1f5f9" />
  <text x="56" y="54" class="title">Amex Agentic Chatbot - System Architecture</text>

  <text x="70" y="100" class="layer">Client Layer</text>
  <rect x="60" y="120" width="250" height="92" class="box" />
  <text x="88" y="158" class="subtitle">Frontend Web App</text>
  <text x="88" y="183" class="small">Browser UI / consumer app</text>

  <rect x="60" y="238" width="250" height="92" class="box" />
  <text x="88" y="276" class="subtitle">CLI / curl Client</text>
  <text x="88" y="301" class="small">Developer testing requests</text>

  <text x="420" y="100" class="layer">Backend + Orchestration</text>
  <rect x="390" y="120" width="620" height="360" class="dashed" />
  <text x="412" y="146" class="small">Docker Compose Network</text>

  <rect x="430" y="170" width="300" height="260" class="group" />
  <text x="456" y="202" class="subtitle">API Server (FastAPI, :8000)</text>
  <rect x="455" y="222" width="248" height="42" class="box" />
  <text x="468" y="248" class="label">POST /chat (agentic loop)</text>
  <rect x="455" y="274" width="248" height="42" class="box" />
  <text x="468" y="300" class="label">/tools/* and /data/* endpoints</text>
  <rect x="455" y="326" width="248" height="42" class="box" />
  <text x="468" y="352" class="label">In-memory session memory</text>
  <text x="456" y="392" class="small">Tracks card/customer context per session_id</text>

  <rect x="760" y="170" width="220" height="130" class="group" />
  <text x="782" y="202" class="subtitle">OpenAI API (LLM)</text>
  <text x="782" y="228" class="small">Reasoning + response</text>
  <text x="782" y="248" class="small">generation</text>
  <text x="782" y="274" class="small">Model: gpt-4o-mini</text>

  <rect x="760" y="320" width="220" height="130" class="group" />
  <text x="782" y="352" class="subtitle">MCP Server (FastMCP)</text>
  <text x="782" y="378" class="small">Port :8765, endpoint /mcp</text>
  <text x="782" y="402" class="small">Tool execution service</text>

  <text x="1060" y="100" class="layer">Tools + Data Layer</text>
  <rect x="1040" y="120" width="520" height="560" class="dashed" />

  <rect x="1070" y="160" width="460" height="260" class="group" />
  <text x="1092" y="192" class="subtitle">MCP Tools</text>
  <text x="1092" y="220" class="label">- list_cards</text>
  <text x="1092" y="244" class="label">- search_cards</text>
  <text x="1092" y="268" class="label">- list_offers</text>
  <text x="1092" y="292" class="label">- search_faq</text>
  <text x="1280" y="220" class="label">- check_eligibility</text>
  <text x="1280" y="244" class="label">- compare_cards</text>
  <text x="1280" y="268" class="label">- rewards_estimate</text>
  <text x="1280" y="292" class="label">- get_spending_summary</text>
  <text x="1280" y="316" class="label">- get_transactions</text>

  <rect x="1070" y="448" width="460" height="90" class="group" />
  <text x="1092" y="482" class="subtitle">MockStore (Business Logic)</text>
  <text x="1092" y="508" class="small">Eligibility, rewards, search, and summaries</text>

  <rect x="1070" y="556" width="460" height="110" class="group" />
  <text x="1092" y="590" class="subtitle">Data Store (JSON Files)</text>
  <text x="1092" y="615" class="small">amex_cards.json, customers_profile.json, offers.json</text>
  <text x="1092" y="638" class="small">transactions.json, faq_knowledge.json</text>

  <path d="M310 166 L430 220" class="arrow" />
  <path d="M310 284 L430 275" class="arrow" />

  <path d="M730 245 L760 245" class="arrow2" />
  <path d="M760 265 L730 265" class="arrow2" />
  <text x="620" y="238" class="small">messages + tool schemas</text>
  <text x="620" y="284" class="small">LLM response / tool calls</text>

  <path d="M730 360 L760 380" class="arrow" />
  <text x="624" y="372" class="small">MCP HTTP /mcp</text>

  <path d="M980 380 L1070 290" class="arrow" />
  <text x="984" y="332" class="small">dispatch tool execution</text>

  <path d="M1300 420 L1300 448" class="arrow" />
  <path d="M1300 538 L1300 556" class="arrow" />

  <path d="M760 430 L730 410" class="arrow2" />
  <text x="625" y="428" class="small">tool result payloads</text>

  <rect x="60" y="770" width="520" height="150" class="box" />
  <text x="82" y="804" class="subtitle">Legend</text>
  <line x1="84" y1="834" x2="160" y2="834" class="arrow" />
  <text x="174" y="839" class="label">Solid arrow: request/response flow</text>
  <line x1="84" y1="864" x2="160" y2="864" class="arrow2" />
  <text x="174" y="869" class="label">Blue arrow: AI orchestration exchange</text>
  <rect x="84" y="883" width="110" height="24" class="dashed" />
  <text x="210" y="900" class="label">Dashed boundary: deployment/network boundary</text>

  <rect x="640" y="770" width="900" height="150" class="box" />
  <text x="662" y="804" class="subtitle">End-to-End Flow</text>
  <text x="662" y="832" class="label">1) Frontend/CLI sends request to FastAPI</text>
  <text x="662" y="856" class="label">2) API sends messages + tool schemas to OpenAI</text>
  <text x="662" y="880" class="label">3) OpenAI requests MCP tools via API</text>
  <text x="1040" y="832" class="label">4) API calls MCP Server over /mcp</text>
  <text x="1040" y="856" class="label">5) MCP tools use MockStore + JSON data</text>
  <text x="1040" y="880" class="label">6) Final answer returns to the client</text>
</svg>
